# xmcd
#
# Track frame offsets:
# 150
# 8506
# 23140
# 24083
# 39129
# 39996
# 54339
# 70755
# 72054
# 88610
# 104119
# 105507
# 119006
# 119351
# 135689
# 149572
# 165973
# 166806
# 179976
# 180720
# 195466
# 196088
# 210610
# 211006
#
# Disc length: 3033 seconds
#
#
# Revision: 2
# Processed by: cddbd v1.5.1PL2 Copyright (c) Steve Scherf et al.
# Submitted via: FreeRIP 2.941 
#
DISCID=410bd718
DTITLE=DJ Maluco - Forró Dance
DYEAR=1900
DGENRE=
TTITLE0=Abertura
TTITLE1=Forro da Porrada
TTITLE2=Agradecimentos
TTITLE3=Forro do Chifrudo
TTITLE4=Preparacao-Forro das Gatinhas
TTITLE5=Forro das Gatinhas
TTITLE6=Forro do Boiola
TTITLE7=Preparacao-Amor de Estudante
TTITLE8=Amor de Estudante
TTITLE9=Forro da Sapatao
TTITLE10=Preparacao-Nao Da Bola Pra Mim
TTITLE11=Nao Da Bola Pra Mim
TTITLE12=Preparacao-Forro do Malucao
TTITLE13=Forro do Malucao
TTITLE14=Forro do Ricardao
TTITLE15=Amor Proibido
TTITLE16=Preparacao-Forro da Piranha
TTITLE17=Forro da Piranha
TTITLE18=Preparacao-Forro da Buchecha
TTITLE19=Forro da Buchecha
TTITLE20=Preparacao-Vizinha Gostosa
TTITLE21=Vizinha Gostosa
TTITLE22=Preparacao-Forro dos Times
TTITLE23=Forro dos Times
EXTD=
EXTT0=
EXTT1=
EXTT2=
EXTT3=
EXTT4=
EXTT5=
EXTT6=
EXTT7=
EXTT8=
EXTT9=
EXTT10=
EXTT11=
EXTT12=
EXTT13=
EXTT14=
EXTT15=
EXTT16=
EXTT17=
EXTT18=
EXTT19=
EXTT20=
EXTT21=
EXTT22=
EXTT23=
PLAYORDER=
